<svg xmlns="http://www.w3.org/2000/svg" xmlns:xlink="http://www.w3.org/1999/xlink" width="300" zoomAndPan="magnify" viewBox="0 0 224.87999 67.499998" height="90" preserveAspectRatio="xMidYMid meet" version="1.0"><defs><g/><clipPath id="23d752c960"><path d="M 2.371094 7.210938 L 19 7.210938 L 19 52 L 2.371094 52 Z M 2.371094 7.210938 " clip-rule="nonzero"/></clipPath><clipPath id="24a93b1c03"><path d="M 20 15 L 37 15 L 37 60.304688 L 20 60.304688 Z M 20 15 " clip-rule="nonzero"/></clipPath><clipPath id="92e0e3f934"><path d="M 41 8 L 44.648438 8 L 44.648438 12 L 41 12 Z M 41 8 " clip-rule="nonzero"/></clipPath></defs><g clip-path="url(#23d752c960)"><path fill="#393536" d="M 2.382812 32.199219 L 2.382812 26.652344 C 3.511719 26.589844 4.359375 26.417969 4.933594 26.140625 C 5.503906 25.863281 6 25.398438 6.417969 24.742188 C 6.835938 24.089844 7.121094 23.269531 7.277344 22.28125 C 7.398438 21.542969 7.460938 20.257812 7.460938 18.421875 C 7.460938 15.433594 7.601562 13.347656 7.878906 12.171875 C 8.15625 10.992188 8.660156 10.042969 9.386719 9.328125 C 10.113281 8.609375 11.171875 8.042969 12.5625 7.628906 C 13.503906 7.351562 14.988281 7.210938 17.015625 7.210938 L 18.242188 7.210938 L 18.242188 12.738281 C 16.527344 12.738281 15.425781 12.832031 14.941406 13.027344 C 14.453125 13.21875 14.09375 13.511719 13.859375 13.902344 C 13.628906 14.296875 13.511719 14.972656 13.511719 15.925781 C 13.511719 16.898438 13.445312 18.738281 13.304688 21.449219 C 13.226562 22.976562 13.027344 24.210938 12.703125 25.160156 C 12.378906 26.109375 11.964844 26.890625 11.460938 27.507812 C 10.957031 28.121094 10.1875 28.761719 9.152344 29.425781 C 10.066406 29.949219 10.8125 30.5625 11.390625 31.261719 C 11.972656 31.964844 12.414062 32.8125 12.726562 33.816406 C 13.035156 34.816406 13.234375 36.160156 13.328125 37.835938 C 13.4375 40.394531 13.488281 42.027344 13.488281 42.738281 C 13.488281 43.753906 13.613281 44.464844 13.859375 44.863281 C 14.109375 45.265625 14.484375 45.570312 14.984375 45.777344 C 15.488281 45.984375 16.574219 46.089844 18.242188 46.089844 L 18.242188 51.636719 L 17.015625 51.636719 C 14.929688 51.636719 13.328125 51.46875 12.214844 51.140625 C 11.101562 50.808594 10.164062 50.257812 9.398438 49.488281 C 8.632812 48.714844 8.117188 47.765625 7.855469 46.632812 C 7.59375 45.5 7.460938 43.714844 7.460938 41.28125 C 7.460938 38.445312 7.335938 36.605469 7.089844 35.757812 C 6.75 34.523438 6.234375 33.640625 5.546875 33.109375 C 4.859375 32.578125 3.804688 32.273438 2.382812 32.199219 " fill-opacity="1" fill-rule="nonzero"/></g><path fill="#eeb30d" d="M 37.5625 18.71875 L 33.933594 18.71875 L 33.933594 15.101562 L 37.5625 15.101562 L 37.5625 18.71875 " fill-opacity="1" fill-rule="nonzero"/><path fill="#eeb30d" d="M 36.707031 25.957031 L 33.933594 25.957031 L 33.933594 23.191406 L 36.707031 23.191406 L 36.707031 25.957031 " fill-opacity="1" fill-rule="nonzero"/><g clip-path="url(#24a93b1c03)"><path fill="#eeb30d" d="M 26.148438 21.484375 L 26.148438 18.71875 L 28.921875 18.71875 L 28.921875 21.484375 Z M 33.199219 34.40625 C 32.503906 33.875 31.988281 32.992188 31.648438 31.761719 C 31.460938 31.066406 31.347656 29.730469 31.3125 27.765625 L 28.921875 27.765625 L 28.921875 24.148438 L 31.261719 24.148438 C 31.203125 22.75 31.078125 21.664062 30.894531 20.886719 C 30.625 19.753906 30.109375 18.796875 29.351562 18.019531 C 28.59375 17.242188 27.660156 16.691406 26.546875 16.367188 C 25.433594 16.042969 23.832031 15.882812 21.746094 15.882812 L 20.515625 15.882812 L 20.515625 21.40625 C 22.261719 21.40625 23.386719 21.507812 23.890625 21.71875 C 24.394531 21.925781 24.742188 22.222656 24.933594 22.609375 C 25.128906 22.992188 25.230469 23.761719 25.246094 24.917969 C 25.324219 28.585938 25.449219 30.960938 25.617188 32.039062 C 25.878906 33.609375 26.375 34.902344 27.101562 35.921875 C 27.628906 36.628906 28.460938 37.355469 29.605469 38.09375 C 28.726562 38.601562 28.003906 39.191406 27.4375 39.863281 C 26.875 40.53125 26.421875 41.347656 26.082031 42.3125 C 25.742188 43.273438 25.535156 44.558594 25.457031 46.160156 C 25.332031 48.8125 25.265625 50.605469 25.257812 51.546875 C 25.25 52.484375 25.128906 53.152344 24.886719 53.542969 C 24.648438 53.9375 24.273438 54.238281 23.761719 54.445312 C 23.253906 54.65625 22.171875 54.757812 20.515625 54.757812 L 20.515625 60.304688 L 21.746094 60.304688 C 23.769531 60.304688 25.253906 60.167969 26.199219 59.890625 C 27.605469 59.472656 28.671875 58.90625 29.398438 58.191406 C 30.125 57.472656 30.625 56.523438 30.894531 55.335938 C 31.164062 54.148438 31.300781 52.0625 31.300781 49.070312 C 31.300781 47.253906 31.359375 45.976562 31.484375 45.234375 C 31.65625 44.25 31.945312 43.429688 32.355469 42.773438 C 32.765625 42.117188 33.253906 41.652344 33.828125 41.375 C 34.398438 41.097656 35.25 40.929688 36.378906 40.867188 L 36.378906 35.320312 C 34.957031 35.242188 33.898438 34.9375 33.199219 34.40625 " fill-opacity="1" fill-rule="nonzero"/></g><g clip-path="url(#92e0e3f934)"><path fill="#eeb30d" d="M 44.640625 11.695312 L 41.867188 11.695312 L 41.867188 8.929688 L 44.640625 8.929688 L 44.640625 11.695312 " fill-opacity="1" fill-rule="nonzero"/></g><path fill="#eeb30d" d="M 30.734375 15.101562 L 25.558594 15.101562 L 25.558594 9.941406 L 30.734375 9.941406 L 30.734375 15.101562 " fill-opacity="1" fill-rule="nonzero"/><g fill="#393536" fill-opacity="1"><g transform="translate(50.459152, 47.222753)"><g><path d="M 7.984375 0.644531 C 15.714844 0.644531 19.535156 -3.691406 19.535156 -12.019531 L 19.535156 -30.007812 L 12.234375 -30.007812 L 12.234375 -12.019531 C 12.234375 -7.511719 10.519531 -5.796875 6.953125 -5.796875 C 4.335938 -5.796875 1.761719 -6.527344 0.558594 -7.082031 L 1.589844 -0.386719 C 2.703125 0.0429688 5.195312 0.644531 7.984375 0.644531 Z M 7.984375 0.644531 "/></g></g></g><g fill="#393536" fill-opacity="1"><g transform="translate(72.783166, 47.222753)"><g><path d="M 12.835938 0.6875 C 21.164062 0.6875 24.773438 -2.917969 24.773438 -8.714844 C 24.773438 -13.953125 22.238281 -16.3125 17.472656 -17.429688 L 12.75 -18.589844 C 10.046875 -19.234375 9.058594 -20.050781 9.058594 -21.808594 C 9.058594 -23.441406 10.175781 -24.558594 13.695312 -24.558594 C 17.300781 -24.558594 21.164062 -23.65625 23.097656 -22.96875 L 22.753906 -29.324219 C 21.164062 -29.878906 17.386719 -30.695312 13.050781 -30.695312 C 5.195312 -30.695312 1.589844 -27.175781 1.589844 -21.636719 C 1.589844 -16.613281 4.035156 -13.996094 8.800781 -12.835938 L 13.609375 -11.675781 C 16.3125 -11.035156 17.34375 -10.21875 17.34375 -8.542969 C 17.34375 -6.65625 16.054688 -5.453125 12.40625 -5.453125 C 8.457031 -5.453125 3.949219 -6.570312 1.675781 -7.382812 L 2.617188 -0.816406 C 4.507812 -0.171875 8.585938 0.6875 12.835938 0.6875 Z M 12.835938 0.6875 "/></g></g></g><g fill="#eeb30d" fill-opacity="1"><g transform="translate(98.750651, 47.222753)"><g><path d="M 24.257812 6.828125 L 27.519531 1.074219 L 22.324219 -1.417969 C 25.5 -3.734375 27.089844 -8.027344 27.089844 -14.984375 C 27.089844 -26.316406 22.925781 -30.695312 14.425781 -30.695312 C 5.882812 -30.695312 1.71875 -26.316406 1.71875 -14.984375 C 1.71875 -3.691406 5.882812 0.6875 14.425781 0.6875 C 14.8125 0.6875 15.199219 0.6875 15.585938 0.644531 Z M 14.425781 -5.582031 C 10.90625 -5.582031 9.144531 -7.511719 9.144531 -14.984375 C 9.144531 -22.539062 10.90625 -24.429688 14.425781 -24.429688 C 17.902344 -24.429688 19.664062 -22.539062 19.664062 -14.984375 C 19.664062 -7.511719 17.902344 -5.582031 14.425781 -5.582031 Z M 14.425781 -5.582031 "/></g></g></g><g fill="#eeb30d" fill-opacity="1"><g transform="translate(127.600146, 47.222753)"><g><path d="M 14.511719 0.6875 C 22.367188 0.6875 26.230469 -3.003906 26.230469 -11.035156 L 26.230469 -30.007812 L 18.890625 -30.007812 L 18.890625 -11.035156 C 18.890625 -7.210938 17.34375 -5.710938 14.511719 -5.710938 C 11.546875 -5.710938 10.046875 -7.210938 10.046875 -11.035156 L 10.046875 -30.007812 L 2.746094 -30.007812 L 2.746094 -11.035156 C 2.746094 -3.003906 6.570312 0.6875 14.511719 0.6875 Z M 14.511719 0.6875 "/></g></g></g><g fill="#eeb30d" fill-opacity="1"><g transform="translate(156.621368, 47.222753)"><g><path d="M 3.046875 0 L 10.347656 0 L 10.347656 -30.050781 L 3.046875 -30.050781 Z M 3.046875 0 "/></g></g></g><g fill="#eeb30d" fill-opacity="1"><g transform="translate(170.058711, 47.222753)"><g><path d="M 10.261719 -6.269531 L 23.226562 -24.472656 L 23.226562 -30.007812 L 2.0625 -30.007812 L 2.0625 -23.742188 L 14.511719 -23.742188 L 1.503906 -5.539062 L 1.503906 0 L 22.796875 0 L 23.785156 -6.269531 Z M 10.261719 -6.269531 "/></g></g></g><g fill="#eeb30d" fill-opacity="1"><g transform="translate(195.259089, 47.222753)"><g><path d="M 14.425781 0.6875 C 22.925781 0.6875 27.089844 -3.691406 27.089844 -15.027344 C 27.089844 -26.316406 22.925781 -30.695312 14.425781 -30.695312 C 5.882812 -30.695312 1.71875 -26.316406 1.71875 -15.027344 C 1.71875 -3.691406 5.882812 0.6875 14.425781 0.6875 Z M 14.425781 -5.582031 C 10.90625 -5.582031 9.144531 -7.511719 9.144531 -15.027344 C 9.144531 -22.539062 10.90625 -24.429688 14.425781 -24.429688 C 17.902344 -24.429688 19.664062 -22.539062 19.664062 -15.027344 C 19.664062 -7.511719 17.902344 -5.582031 14.425781 -5.582031 Z M 14.425781 -5.582031 "/></g></g></g></svg>